<?xml version="1.0" encoding="UTF-8" standalone="no"?>
<!-- Created with Inkscape (http://www.inkscape.org/) -->

<svg
   xmlns:dc="http://purl.org/dc/elements/1.1/"
   xmlns:cc="http://creativecommons.org/ns#"
   xmlns:rdf="http://www.w3.org/1999/02/22-rdf-syntax-ns#"
   xmlns:svg="http://www.w3.org/2000/svg"
   xmlns="http://www.w3.org/2000/svg"
   xmlns:sodipodi="http://sodipodi.sourceforge.net/DTD/sodipodi-0.dtd"
   xmlns:inkscape="http://www.inkscape.org/namespaces/inkscape"
   width="1092.2667"
   height="388.26666"
   id="svg4150"
   version="1.1"
   inkscape:version="0.92.1 r15371"
   sodipodi:docname="logo_aejd_hor_cor.svg"
   inkscape:export-filename="F:\2014-2015 JD\pte\logo_aejd\alterado\bitmaps\logo_aejd_100.png"
   inkscape:export-xdpi="8.9010992"
   inkscape:export-ydpi="8.9010992">
  <defs
     id="defs4152">
    <pattern
       y="0"
       x="0"
       height="6"
       width="6"
       patternUnits="userSpaceOnUse"
       id="EMFhbasepattern" />
  </defs>
  <sodipodi:namedview
     id="base"
     pagecolor="#ffffff"
     bordercolor="#666666"
     borderopacity="1.0"
     inkscape:pageopacity="0.0"
     inkscape:pageshadow="2"
     inkscape:zoom="0.49497475"
     inkscape:cx="264.41298"
     inkscape:cy="59.064058"
     inkscape:document-units="px"
     inkscape:current-layer="g5228"
     showgrid="false"
     height="370px"
     showguides="true"
     inkscape:guide-bbox="true"
     inkscape:window-width="1600"
     inkscape:window-height="838"
     inkscape:window-x="-8"
     inkscape:window-y="-8"
     inkscape:window-maximized="1" />
  <metadata
     id="metadata4155">
    <rdf:RDF>
      <cc:Work
         rdf:about="">
        <dc:format>image/svg+xml</dc:format>
        <dc:type
           rdf:resource="http://purl.org/dc/dcmitype/StillImage" />
        <dc:title />
      </cc:Work>
    </rdf:RDF>
  </metadata>
  <g
     inkscape:label="Layer 1"
     inkscape:groupmode="layer"
     id="layer1"
     transform="translate(0,-734.25299)">
    <g
       id="g278"
       transform="translate(410.76885,-527.46559)">
      <path
         inkscape:connector-curvature="0"
         style="fill:#ffffff;fill-opacity:1;fill-rule:nonzero;stroke:none"
         d="m -408.63551,1263.7914 h 1087.9919 v 384.1571 h -1087.9919 z"
         id="path68" />
      <path
         inkscape:connector-curvature="0"
         style="fill:#000000;fill-opacity:1;fill-rule:nonzero;stroke:none"
         d="m 25.28128,1315.6311 23.75982,53.5196 H 34.72121 l -4.39997,-10.56 H 6.3214201 l -3.99997,10.56 H -11.75845 l 21.5198401,-53.5196 z m 1.03999,33.5997 -8.55994,-20.7998 -7.9199399,20.7998 z"
         id="path70" />
      <path
         inkscape:connector-curvature="0"
         style="fill:#000000;fill-opacity:1;fill-rule:nonzero;stroke:none"
         d="m 103.3607,1319.311 v 11.6799 c -6.87995,-3.2799 -13.5199,-4.8799 -20.07985,-4.8799 -6.23996,0 -11.11992,1.52 -14.4799,4.7199 -3.43997,3.2 -5.11996,7.2 -5.11996,12.0799 0,4.72 1.67999,8.56 5.11996,11.44 3.35998,2.9599 7.83995,4.3999 13.4399,4.3999 2.87998,0 5.83996,-0.64 8.79994,-1.92 v -6.2399 h -7.75994 v -9.8399 h 21.19984 v 21.9198 c -2.15998,2.08 -5.35996,3.84 -9.75993,5.2 -4.31997,1.36 -8.55994,1.9999 -12.7999,1.9999 -9.35993,0 -17.03988,-2.5599 -23.03983,-7.6799 -5.91996,-5.2 -8.95994,-11.7599 -8.95994,-19.6798 0,-8.16 3.03998,-14.7999 8.95994,-19.9199 5.99995,-5.12 13.75989,-7.6799 23.35982,-7.6799 7.83995,0 14.87989,1.5199 21.11985,4.3999 z"
         id="path72" />
      <path
         inkscape:connector-curvature="0"
         style="fill:#000000;fill-opacity:1;fill-rule:nonzero;stroke:none"
         d="m 116.0006,1315.6311 h 23.91983 c 5.19996,0 9.43993,1.5199 12.6399,4.4799 3.27998,3.04 4.87997,6.64 4.87997,10.8799 0,5.92 -3.03998,10.32 -9.19994,13.1199 2.71998,1.2 5.27997,4.48 7.67995,9.84 2.39998,5.4399 4.79996,10.4799 7.03995,15.1999 h -14.7199 c -0.87999,-1.76 -2.39998,-5.12 -4.55996,-10.08 -2.15999,-4.9599 -3.99997,-8.1599 -5.51996,-9.5199 -1.51999,-1.44 -3.19998,-2.08 -4.95996,-2.08 h -3.83998 v 21.6799 h -13.3599 z m 13.3599,9.7599 v 12.2399 h 7.03995 c 2.23999,0 3.99997,-0.56 5.35996,-1.6 1.27999,-1.04 1.99999,-2.56 1.99999,-4.56 0,-3.9999 -2.55998,-6.0799 -7.67994,-6.0799 z"
         id="path74" />
      <path
         inkscape:connector-curvature="0"
         style="fill:#000000;fill-opacity:1;fill-rule:nonzero;stroke:none"
         d="m 206.71993,1315.6311 h 13.3599 v 30.3997 c 0,7.84 -2.31998,13.7599 -6.95995,17.7599 -4.63996,4.08 -11.19991,6.0799 -19.83985,6.0799 -8.47994,0 -15.03989,-2.0799 -19.75985,-6.1599 -4.63997,-4.08 -7.03995,-9.9199 -7.03995,-17.5999 v -30.4797 h 13.4399 v 30.7997 c 0,3.68 1.19999,6.72 3.59997,8.96 2.47999,2.2399 5.67996,3.3599 9.59993,3.3599 4.15997,0 7.43995,-1.2 9.83993,-3.4399 2.47998,-2.32 3.75997,-5.6 3.75997,-9.84 z"
         id="path76" />
      <path
         inkscape:connector-curvature="0"
         style="fill:#000000;fill-opacity:1;fill-rule:nonzero;stroke:none"
         d="m 232.31974,1315.6311 h 23.91982 c 5.35997,0 9.67993,1.5199 12.87991,4.7199 3.19998,3.12 4.79996,6.8 4.79996,11.1199 0,4.48 -1.59998,8.24 -4.71996,11.4399 -3.19998,3.2 -7.43995,4.72 -12.87991,4.72 h -10.63992 v 21.5199 h -13.3599 z m 13.3599,9.7599 v 12.4799 h 6.15996 c 5.59996,0 8.31994,-2.08 8.31994,-6.24 0,-2.32 -0.72,-3.9199 -2.15999,-4.7999 -1.51999,-0.96 -4.07997,-1.44 -7.59994,-1.44 z"
         id="path78" />
      <path
         inkscape:connector-curvature="0"
         style="fill:#000000;fill-opacity:1;fill-rule:nonzero;stroke:none"
         d="m 306.0792,1315.6311 23.75982,53.5196 h -14.39989 l -4.39997,-10.56 h -23.91982 l -3.99997,10.56 h -14.1599 l 21.59984,-53.5196 z m 1.03999,33.5997 -8.63994,-20.7998 -7.83994,20.7998 z"
         id="path80" />
      <path
         inkscape:connector-curvature="0"
         style="fill:#000000;fill-opacity:1;fill-rule:nonzero;stroke:none"
         d="m 364.87876,1335.4709 17.19987,-19.8398 h 11.59992 v 53.5196 h -13.3599 v -33.4398 l -14.3999,16.7999 h -2.07998 l -14.47989,-16.7999 v 33.4398 h -13.27991 v -53.5196 h 11.59992 z"
         id="path82" />
      <path
         inkscape:connector-curvature="0"
         style="fill:#000000;fill-opacity:1;fill-rule:nonzero;stroke:none"
         d="m 445.11817,1359.3907 v 9.76 h -39.43971 v -53.5196 h 38.95971 v 9.7599 h -25.59981 v 11.2799 h 24.39982 v 9.8399 h -24.39982 v 12.8799 z"
         id="path84" />
      <path
         inkscape:connector-curvature="0"
         style="fill:#000000;fill-opacity:1;fill-rule:nonzero;stroke:none"
         d="m 509.59769,1315.6311 v 53.5196 h -11.19992 l -29.59978,-34.3198 v 34.3198 h -13.3599 v -53.5196 H 467.678 l 28.55979,32.7197 v -32.7197 z"
         id="path86" />
      <path
         inkscape:connector-curvature="0"
         style="fill:#000000;fill-opacity:1;fill-rule:nonzero;stroke:none"
         d="m 569.91724,1315.6311 v 9.7599 h -19.35986 v 43.7597 h -13.3599 v -43.7597 h -19.43985 v -9.7599 z"
         id="path88" />
      <path
         inkscape:connector-curvature="0"
         style="fill:#000000;fill-opacity:1;fill-rule:nonzero;stroke:none"
         d="m 601.43699,1314.9111 c 9.12,0 16.4799,2.7999 22.1599,8.3199 5.6799,5.44 8.4799,11.8399 8.4799,19.1999 0,7.3599 -2.88,13.8398 -8.5599,19.2798 -5.76,5.44 -13.1199,8.1599 -22.0799,8.1599 -9.0399,0 -16.47986,-2.7199 -22.15982,-8.1599 -5.67996,-5.36 -8.55993,-11.8399 -8.55993,-19.2798 0,-7.36 2.87997,-13.7599 8.47993,-19.2799 5.67996,-5.44 13.11992,-8.2399 22.23982,-8.2399 z m 0,43.8396 c 5.04,0 9.12,-1.52 12.2399,-4.4799 3.12,-3.04 4.64,-6.96 4.64,-11.8399 0,-4.96 -1.52,-8.88 -4.64,-11.84 -3.1199,-3.0399 -7.1999,-4.4799 -12.2399,-4.4799 -5.1199,0 -9.1999,1.44 -12.31989,4.4799 -3.03998,2.96 -4.63997,6.88 -4.63997,11.84 0,4.8799 1.59999,8.7999 4.63997,11.8399 3.11999,2.9599 7.19999,4.4799 12.31989,4.4799 z"
         id="path90" />
      <path
         inkscape:connector-curvature="0"
         style="fill:#000000;fill-opacity:1;fill-rule:nonzero;stroke:none"
         d="M -6.0784899,1421.6303 H 17.52133 c 9.11994,0 16.31988,2.4799 21.59984,7.5199 5.27996,4.96 7.99994,11.3599 7.99994,19.3599 0,8.2399 -2.71998,14.7999 -8.07994,19.5198 -5.43996,4.72 -13.0399,7.12 -23.03983,7.12 H -6.0784899 Z m 13.2799,9.7599 v 33.9197 H 15.92135 c 5.67995,0 9.99992,-1.5199 12.9599,-4.6399 2.95998,-3.12 4.47997,-7.2 4.47997,-12.2399 0,-5.28 -1.51999,-9.44 -4.55997,-12.4799 -3.03998,-3.04 -7.35995,-4.56 -13.0399,-4.56 z"
         id="path92" />
      <path
         inkscape:connector-curvature="0"
         style="fill:#000000;fill-opacity:1;fill-rule:nonzero;stroke:none"
         d="m 96.64075,1465.3099 v 9.84 H 57.12104 v -53.5196 h 38.95971 v 9.7599 H 70.48094 v 11.2799 h 24.39982 v 9.7599 H 70.48094 v 12.8799 z"
         id="path94" />
      <path
         inkscape:connector-curvature="0"
         style="fill:#000000;fill-opacity:1;fill-rule:nonzero;stroke:none"
         d="m 168.24022,1465.3099 v 9.84 h -39.51971 v -53.5196 h 38.95971 v 9.7599 h -25.59981 v 11.2799 h 24.39982 v 9.7599 h -24.39982 v 12.8799 z"
         id="path96" />
      <path
         inkscape:connector-curvature="0"
         style="fill:#000000;fill-opacity:1;fill-rule:nonzero;stroke:none"
         d="m 214.79987,1425.0702 v 10.48 c -7.11995,-3.2 -12.7999,-4.8 -17.03987,-4.8 -2.39998,0 -4.31997,0.4 -5.75996,1.2 -1.35999,0.8 -2.07998,1.84 -2.07998,3.2 0,1.04 0.47999,2 1.51998,2.8799 1.04,0.96 3.51998,2.16 7.51995,3.6 3.91997,1.44 7.11995,2.8 9.51993,4.08 2.31998,1.2 4.39997,2.96 6.07995,5.2799 1.75999,2.24 2.63998,5.12 2.63998,8.56 0,4.9599 -1.91998,8.9599 -5.67995,11.9199 -3.75998,2.88 -8.71994,4.4 -14.87989,4.4 -6.63995,0 -13.11991,-1.76 -19.35986,-5.2 V 1459.15 c 3.59997,2.4 6.79995,4.16 9.51993,5.1999 2.79998,1.12 5.67996,1.68 8.79993,1.68 5.19997,0 7.83995,-1.68 7.83995,-4.9599 0,-1.12 -0.48,-2.16 -1.51999,-3.2 -1.11999,-0.96 -3.59998,-2.16 -7.59995,-3.6 -3.99997,-1.44 -7.19994,-2.8 -9.51993,-3.9999 -2.31998,-1.2 -4.31996,-2.96 -6.07995,-5.28 -1.67999,-2.24 -2.47998,-5.12 -2.47998,-8.7199 0,-4.56 1.83998,-8.32 5.51996,-11.12 3.67997,-2.7999 8.63993,-4.2399 14.87989,-4.2399 5.75995,0 11.75991,1.36 18.15986,4.1599 z"
         id="path98" />
      <path
         inkscape:connector-curvature="0"
         style="fill:#000000;fill-opacity:1;fill-rule:nonzero;stroke:none"
         d="m 275.67942,1458.83 v 11.6799 c -6.63995,3.52 -13.6799,5.36 -21.03984,5.36 -9.43993,0 -17.03988,-2.64 -22.71983,-7.92 -5.59996,-5.1999 -8.39994,-11.6799 -8.39994,-19.4398 0,-7.68 2.95998,-14.1599 8.87993,-19.5199 5.91996,-5.3599 13.7599,-8.0799 23.27983,-8.0799 7.67994,0 14.15989,1.6 19.43986,4.7199 v 11.9199 c -6.47996,-3.6799 -12.63991,-5.5199 -18.47987,-5.5199 -5.67996,0 -10.31992,1.6 -13.99989,4.64 -3.59998,3.0399 -5.35996,6.9599 -5.35996,11.6799 0,4.7199 1.75998,8.6399 5.27996,11.7599 3.59997,3.04 8.15994,4.6399 13.75989,4.6399 2.79998,0 5.43996,-0.4 7.99995,-1.1199 2.55998,-0.72 6.31995,-2.32 11.35991,-4.8 z"
         id="path100" />
      <path
         inkscape:connector-curvature="0"
         style="fill:#000000;fill-opacity:1;fill-rule:nonzero;stroke:none"
         d="m 314.79913,1420.9103 c 9.11993,0 16.47988,2.72 22.15984,8.2399 5.59996,5.52 8.47993,11.9199 8.47993,19.2799 0,7.3599 -2.87997,13.8399 -8.63993,19.2798 -5.67996,5.44 -13.03991,8.16 -21.99984,8.16 -9.11993,0 -16.47988,-2.72 -22.15983,-8.16 -5.67996,-5.4399 -8.55994,-11.8399 -8.55994,-19.2798 0,-7.36 2.79998,-13.7599 8.47994,-19.2799 5.67995,-5.5199 13.0399,-8.2399 22.23983,-8.2399 z m 0,43.8396 c 5.03996,0 9.11993,-1.5199 12.23991,-4.4799 3.03998,-3.04 4.63997,-6.96 4.63997,-11.8399 0,-4.96 -1.59999,-8.88 -4.63997,-11.9199 -3.11998,-2.96 -7.19995,-4.48 -12.23991,-4.48 -5.11996,0 -9.19993,1.52 -12.31991,4.48 -3.11997,3.0399 -4.63996,6.9599 -4.63996,11.9199 0,4.8799 1.51999,8.7999 4.63996,11.8399 3.11998,2.96 7.19995,4.4799 12.31991,4.4799 z"
         id="path102" />
      <path
         inkscape:connector-curvature="0"
         style="fill:#000000;fill-opacity:1;fill-rule:nonzero;stroke:none"
         d="m 395.91853,1465.3099 v 9.84 h -40.8797 v -53.5196 h 13.3599 v 43.6796 z"
         id="path104" />
      <path
         inkscape:connector-curvature="0"
         style="fill:#000000;fill-opacity:1;fill-rule:nonzero;stroke:none"
         d="m 434.71824,1421.6303 23.75983,53.5196 h -14.3199 l -4.47996,-10.56 h -23.91983 l -3.99997,10.56 h -14.15989 l 21.59984,-53.5196 z m 1.04,33.5997 -8.63994,-20.7998 -7.83994,20.7998 z"
         id="path106" />
      <path
         inkscape:connector-curvature="0"
         style="fill:#000000;fill-opacity:1;fill-rule:nonzero;stroke:none"
         d="m 501.03775,1425.0702 v 10.48 c -7.11995,-3.2 -12.7199,-4.8 -16.95987,-4.8 -2.39998,0 -4.31997,0.4 -5.75996,1.2 -1.43999,0.8 -2.07998,1.84 -2.07998,3.2 0,1.04 0.47999,2 1.51998,2.8799 1.04,0.96 3.51998,2.16 7.43995,3.6 3.99997,1.44 7.11995,2.8 9.51993,4.08 2.39998,1.2 4.39997,2.96 6.15995,5.2799 1.67999,2.24 2.55998,5.12 2.55998,8.56 0,4.9599 -1.83998,8.9599 -5.67995,11.9199 -3.75998,2.88 -8.71994,4.4 -14.87989,4.4 -6.63995,0 -13.03991,-1.76 -19.27986,-5.2 V 1459.15 c 3.59997,2.4 6.71995,4.16 9.51993,5.1999 2.71998,1.12 5.67996,1.68 8.71993,1.68 5.27996,0 7.91995,-1.68 7.91995,-4.9599 0,-1.12 -0.56,-2.16 -1.59999,-3.2 -1.04,-0.96 -3.59998,-2.16 -7.59995,-3.6 -3.99997,-1.44 -7.11994,-2.8 -9.51993,-3.9999 -2.31998,-1.2 -4.31996,-2.96 -5.99995,-5.28 -1.67999,-2.24 -2.55998,-5.12 -2.55998,-8.7199 0,-4.56 1.83998,-8.32 5.59996,-11.12 3.67997,-2.7999 8.63993,-4.2399 14.79989,-4.2399 5.75995,0 11.83991,1.36 18.15986,4.1599 z"
         id="path108" />
      <path
         inkscape:connector-curvature="0"
         style="fill:#000000;fill-opacity:1;fill-rule:nonzero;stroke:none"
         d="m 8.3214001,1527.5495 v 48.6396 c 0,13.7599 -6.31995,20.5598 -18.9598601,20.5598 -1.19999,0 -2.47998,0 -3.91997,-0.16 v -10.4799 c 0.72,0.08 1.43999,0.16 2.07999,0.16 4.9599601,0 7.4399401,-3.28 7.4399401,-9.8399 v -48.8796 z"
         id="path110" />
      <path
         inkscape:connector-curvature="0"
         style="fill:#000000;fill-opacity:1;fill-rule:nonzero;stroke:none"
         d="m 59.92102,1527.5495 h 13.2799 v 30.3997 c 0,7.84 -2.23998,13.7599 -6.87995,17.8399 -4.63996,4 -11.27991,5.9999 -19.83985,5.9999 -8.47994,0 -15.03989,-1.9999 -19.75985,-6.0799 -4.71997,-4.08 -7.03995,-9.9999 -7.03995,-17.6799 v -30.4797 h 13.3599 v 30.7997 c 0,3.76 1.19999,6.72 3.67997,8.9599 2.39998,2.24 5.67996,3.44 9.59993,3.44 4.15997,0 7.43994,-1.2 9.83993,-3.52 2.47998,-2.2399 3.75997,-5.5199 3.75997,-9.7599 z m -0.87999,-16.6399 -12.95991,11.5199 h -5.83996 l 5.83996,-11.5199 z"
         id="path112" />
      <path
         inkscape:connector-curvature="0"
         style="fill:#000000;fill-opacity:1;fill-rule:nonzero;stroke:none"
         d="m 125.68053,1571.3091 v 9.8399 h -40.7997 v -53.5995 h 13.35991 v 43.7596 z"
         id="path114" />
      <path
         inkscape:connector-curvature="0"
         style="fill:#000000;fill-opacity:1;fill-rule:nonzero;stroke:none"
         d="m 146.96037,1527.5495 v 53.5995 h -13.2799 v -53.5995 z"
         id="path116" />
      <path
         inkscape:connector-curvature="0"
         style="fill:#000000;fill-opacity:1;fill-rule:nonzero;stroke:none"
         d="m 187.84007,1526.9095 c 9.11993,0 16.47988,2.7199 22.15984,8.2399 5.59996,5.5199 8.47993,11.9199 8.47993,19.1998 0,7.44 -2.87997,13.8399 -8.63993,19.2799 -5.67996,5.44 -13.0399,8.1599 -21.99984,8.1599 -9.11993,0 -16.47988,-2.6399 -22.15983,-8.0799 -5.67996,-5.44 -8.55994,-11.8399 -8.55994,-19.3599 0,-7.2799 2.79998,-13.6799 8.47994,-19.1998 5.67995,-5.52 13.0399,-8.2399 22.23983,-8.2399 z m 0,43.8396 c 5.03996,0 9.11993,-1.52 12.23991,-4.5599 3.03998,-2.96 4.63997,-6.96 4.63997,-11.84 0,-4.8799 -1.59999,-8.7999 -4.63997,-11.8399 -3.11998,-2.96 -7.19995,-4.4799 -12.23991,-4.4799 -5.11996,0 -9.19993,1.5199 -12.31991,4.4799 -3.11997,3.04 -4.63996,6.96 -4.63996,11.8399 0,4.88 1.51999,8.88 4.63996,11.84 3.11998,3.0399 7.19995,4.5599 12.31991,4.5599 z"
         id="path118" />
      <path
         inkscape:connector-curvature="0"
         style="fill:#000000;fill-opacity:1;fill-rule:nonzero;stroke:none"
         d="m 249.83961,1527.5495 h 23.59983 c 9.11993,0 16.31988,2.5599 21.59984,7.5199 5.27996,5.0399 7.99994,11.4399 7.99994,19.3598 0,8.32 -2.71998,14.8799 -8.07994,19.5999 -5.43996,4.72 -13.03991,7.1199 -23.03983,7.1199 h -22.07984 z m 13.2799,9.8399 v 33.9197 h 8.71994 c 5.67996,0 9.99993,-1.52 12.9599,-4.6399 2.95998,-3.12 4.47997,-7.2 4.47997,-12.32 0,-5.1999 -1.51999,-9.3599 -4.55997,-12.3999 -3.03997,-3.04 -7.35994,-4.5599 -13.0399,-4.5599 z"
         id="path120" />
      <path
         inkscape:connector-curvature="0"
         style="fill:#000000;fill-opacity:1;fill-rule:nonzero;stroke:none"
         d="m 339.91895,1527.5495 23.75982,53.5995 h -14.31989 l -4.39997,-10.5599 h -23.99982 l -3.91998,10.5599 h -14.15989 l 21.59984,-53.5995 z m 1.11999,33.6797 -8.63994,-20.8799 -7.91994,20.8799 z"
         id="path122" />
      <path
         inkscape:connector-curvature="0"
         style="fill:#000000;fill-opacity:1;fill-rule:nonzero;stroke:none"
         d="m 424.15832,1527.5495 v 53.5995 H 412.9584 l -29.59978,-34.3197 v 34.3197 h -13.3599 v -53.5995 h 12.23991 l 28.63979,32.7997 v -32.7997 z"
         id="path124" />
      <path
         inkscape:connector-curvature="0"
         style="fill:#000000;fill-opacity:1;fill-rule:nonzero;stroke:none"
         d="m 484.55787,1527.5495 v 9.8399 h -19.43985 v 43.7596 h -13.3599 v -43.7596 h -19.35986 v -9.8399 z"
         id="path126" />
      <path
         inkscape:connector-curvature="0"
         style="fill:#000000;fill-opacity:1;fill-rule:nonzero;stroke:none"
         d="m 514.63765,1527.5495 23.75982,53.5995 h -14.31989 l -4.39997,-10.5599 h -23.99982 l -3.91997,10.5599 h -14.15989 l 21.59984,-53.5995 z m 1.11999,33.6797 -8.63993,-20.8799 -7.83995,20.8799 z"
         id="path128" />
      <path
         inkscape:connector-curvature="0"
         style="fill:#000000;fill-opacity:1;fill-rule:nonzero;stroke:none"
         d="m 581.11716,1531.0694 v 10.3999 c -7.11995,-3.1999 -12.79991,-4.7999 -17.03988,-4.7999 -2.39998,0 -4.31996,0.48 -5.75995,1.28 -1.35999,0.7999 -2.07999,1.8399 -2.07999,3.1999 0,0.96 0.48,2 1.51999,2.88 1.03999,0.96 3.51998,2.08 7.51995,3.6 3.91997,1.44 7.11994,2.8 9.51993,4 2.31998,1.28 4.39996,3.0399 6.07995,5.2799 1.75999,2.32 2.63998,5.2 2.63998,8.64 0,4.9599 -1.91999,8.9599 -5.67996,11.8399 -3.75997,2.9599 -8.71993,4.3999 -14.87989,4.3999 -6.63995,0 -13.1199,-1.68 -19.35985,-5.1199 v -11.5199 c 3.59997,2.3999 6.79995,4.0799 9.51993,5.1999 2.79998,1.12 5.67995,1.68 8.79993,1.68 5.27996,0 7.83994,-1.68 7.83994,-4.96 0,-1.1199 -0.47999,-2.1599 -1.51999,-3.1999 -1.03999,-0.96 -3.59997,-2.16 -7.59994,-3.6 -3.99997,-1.44 -7.19995,-2.8 -9.51993,-4 -2.31998,-1.2 -4.31997,-2.96 -6.07995,-5.2799 -1.67999,-2.24 -2.47999,-5.2 -2.47999,-8.72 0,-4.6399 1.83999,-8.3199 5.51996,-11.1199 3.67998,-2.7999 8.63994,-4.2399 14.87989,-4.2399 5.75996,0 11.75992,1.36 18.15987,4.1599 z"
         id="path130" />
      <path
         inkscape:connector-curvature="0"
         style="fill:#0097cc;fill-opacity:1;fill-rule:evenodd;stroke:none"
         d="M -390.87564,1280.1913 H -220.3169 V 1450.99 h -170.55874 z"
         id="path132" />
      <path
         inkscape:connector-curvature="0"
         style="fill:#eeb500;fill-opacity:1;fill-rule:evenodd;stroke:none"
         d="M -213.99695,1280.1913 H -43.19822 V 1450.99 h -170.79873 z"
         id="path134" />
      <path
         inkscape:connector-curvature="0"
         style="fill:none;stroke:#ffffff;stroke-width:1.11999166px;stroke-linecap:butt;stroke-linejoin:round;stroke-miterlimit:4;stroke-dasharray:none;stroke-opacity:1"
         d="m -390.79564,1457.47 h 170.87873 v 170.7987 h -170.87873 z"
         id="path136" />
      <path
         inkscape:connector-curvature="0"
         style="fill:#0097cc;fill-opacity:1;fill-rule:evenodd;stroke:none"
         d="m -390.79564,1457.47 h 170.47874 v 170.7987 h -170.47874 z"
         id="path138" />
      <path
         inkscape:connector-curvature="0"
         style="fill:#eeb500;fill-opacity:1;fill-rule:evenodd;stroke:none"
         d="m -213.99695,1457.47 h 170.79873 v 170.7987 h -170.79873 z"
         id="path140" />
      <path
         inkscape:connector-curvature="0"
         style="fill:#0097cc;fill-opacity:1;fill-rule:evenodd;stroke:none"
         d="m -213.99695,1473.1499 c 53.2796,0.48 96.39928,32.1597 95.75929,70.7994 -0.64,37.5997 -43.91968,67.9995 -95.75929,68.9595 v -12.5599 c 49.03963,-0.8 80.1594,-28.7998 80.1594,-58.7196 -0.95999,-28.3197 -32.31976,-53.0395 -80.1594,-53.4395 z"
         id="path142" />
      <path
         inkscape:connector-curvature="0"
         style="fill:none;stroke:#eeb500;stroke-width:15.99988174px;stroke-linecap:butt;stroke-linejoin:miter;stroke-miterlimit:4;stroke-dasharray:none;stroke-opacity:1"
         d="m -311.75623,1570.4291 c 0,11.9199 6.47995,23.7598 17.19987,30.3198 6.39996,3.52 19.11986,8.3999 32.39976,0.8 11.43992,-6.96 17.59987,-18.7999 17.59987,-29.5998 l -0.08,-91.0393 -74.87945,0.16"
         id="path144" />
      <path
         inkscape:connector-curvature="0"
         style="fill:#0097cc;fill-opacity:1;fill-rule:nonzero;stroke:none"
         d="m -213.99695,1303.7111 h 94.5593 v 15.5999 h -94.5593 z"
         id="path146" />
      <path
         inkscape:connector-curvature="0"
         style="fill:#0097cc;fill-opacity:1;fill-rule:nonzero;stroke:none"
         d="m -213.91695,1357.3107 h 94.5593 v 15.5999 h -94.5593 z"
         id="path148" />
      <path
         inkscape:connector-curvature="0"
         style="fill:#0097cc;fill-opacity:1;fill-rule:nonzero;stroke:none"
         d="m -213.99695,1412.2703 h 94.5593 v 15.6799 h -94.5593 z"
         id="path150" />
      <path
         inkscape:connector-curvature="0"
         style="fill:none;stroke:#eeb500;stroke-width:14.95988941px;stroke-linecap:butt;stroke-linejoin:miter;stroke-miterlimit:4;stroke-dasharray:none;stroke-opacity:1"
         d="m -243.35673,1427.3902 -0.56,-85.1993 c -0.08,-11.52 -6.55995,-22.1599 -16.95987,-27.8398 -5.35996,-3.04 -11.51992,-4.48 -17.67987,-4.32 -5.67996,0.24 -11.11992,1.76 -15.99989,4.48 -10.07992,5.7599 -16.31987,16.0798 -16.47987,27.2798 v 85.3593"
         id="path152" />
      <path
         inkscape:connector-curvature="0"
         style="fill:#eeb500;fill-opacity:1;fill-rule:nonzero;stroke:#eeb500;stroke-width:3.83997154px;stroke-linecap:butt;stroke-linejoin:miter;stroke-miterlimit:4;stroke-dasharray:none;stroke-opacity:1"
         d="m -365.51583,1359.0707 h 143.51894 v 11.9999 h -143.51894 z"
         id="path154" />
    </g>
    <g
       id="g232"
       transform="translate(-26.263966,460.62956)">
      <g
         id="g3197"
         transform="translate(-1.6086535,2.9296038e-4)">
        <g
           id="g5228"
           transform="matrix(2.9479935,0,0,2.9479935,-31.373546,-722.25983)" />
      </g>
    </g>
  </g>
</svg>
